<svg width="78" height="16" viewBox="0 0 78 16" fill="none" xmlns="http://www.w3.org/2000/svg">
<path d="M1.04 12C0.81 12 0.61 11.915 0.44 11.745C0.27 11.575 0.185 11.375 0.185 11.145V1.905C0.185 1.675 0.27 1.475 0.44 1.305C0.61 1.135 0.81 1.05 1.04 1.05H6.14C6.37 1.05 6.57 1.135 6.74 1.305C6.91 1.475 6.995 1.675 6.995 1.905C6.995 2.135 6.91 2.335 6.74 2.505C6.57 2.665 6.37 2.745 6.14 2.745H2.42C2.33 2.745 2.285 2.79 2.285 2.88V5.295C2.285 5.385 2.33 5.43 2.42 5.43H5.885C6.115 5.43 6.305 5.51 6.455 5.67C6.615 5.83 6.695 6.02 6.695 6.24C6.695 6.46 6.615 6.65 6.455 6.81C6.305 6.96 6.115 7.035 5.885 7.035H2.42C2.33 7.035 2.285 7.08 2.285 7.17V10.17C2.285 10.26 2.33 10.305 2.42 10.305H6.14C6.37 10.305 6.57 10.39 6.74 10.56C6.91 10.72 6.995 10.915 6.995 11.145C6.995 11.375 6.91 11.575 6.74 11.745C6.57 11.915 6.37 12 6.14 12H1.04ZM11.642 11.19L9.64695 5.01C9.57695 4.81 9.60195 4.625 9.72195 4.455C9.85195 4.285 10.022 4.2 10.232 4.2H10.682C10.932 4.2 11.157 4.28 11.357 4.44C11.557 4.59 11.687 4.785 11.747 5.025L13.247 10.83C13.247 10.84 13.252 10.845 13.262 10.845C13.272 10.845 13.277 10.84 13.277 10.83L14.777 5.025C14.837 4.785 14.967 4.59 15.167 4.44C15.367 4.28 15.592 4.2 15.842 4.2H16.232C16.442 4.2 16.607 4.285 16.727 4.455C16.857 4.625 16.887 4.81 16.817 5.01L14.822 11.19C14.752 11.43 14.612 11.625 14.402 11.775C14.202 11.925 13.972 12 13.712 12H12.752C12.502 12 12.272 11.925 12.062 11.775C11.862 11.625 11.722 11.43 11.642 11.19ZM22.3728 5.445C21.8628 5.445 21.4678 5.59 21.1878 5.88C20.9178 6.16 20.7478 6.615 20.6778 7.245C20.6778 7.325 20.7178 7.365 20.7978 7.365H23.7378C23.8178 7.365 23.8578 7.325 23.8578 7.245C23.8178 6.045 23.3228 5.445 22.3728 5.445ZM22.7478 12.15C21.4378 12.15 20.4278 11.81 19.7178 11.13C19.0178 10.44 18.6678 9.43 18.6678 8.1C18.6678 6.78 18.9828 5.775 19.6128 5.085C20.2428 4.395 21.1528 4.05 22.3428 4.05C24.5628 4.05 25.7028 5.31 25.7628 7.83C25.7728 8.07 25.6878 8.27 25.5078 8.43C25.3278 8.59 25.1178 8.67 24.8778 8.67H20.7828C20.6928 8.67 20.6578 8.715 20.6778 8.805C20.7478 9.475 20.9678 9.965 21.3378 10.275C21.7178 10.575 22.2678 10.725 22.9878 10.725C23.4378 10.725 23.9378 10.65 24.4878 10.5C24.6678 10.45 24.8328 10.48 24.9828 10.59C25.1428 10.7 25.2228 10.85 25.2228 11.04C25.2228 11.27 25.1528 11.475 25.0128 11.655C24.8828 11.825 24.7078 11.93 24.4878 11.97C23.9278 12.09 23.3478 12.15 22.7478 12.15ZM29.4363 12C29.2063 12 29.0063 11.915 28.8363 11.745C28.6663 11.575 28.5813 11.375 28.5813 11.145V5.055C28.5813 4.825 28.6663 4.625 28.8363 4.455C29.0063 4.285 29.2063 4.2 29.4363 4.2H29.6313C29.8713 4.2 30.0713 4.285 30.2313 4.455C30.4013 4.615 30.4913 4.815 30.5013 5.055V5.16C30.5013 5.17 30.5063 5.175 30.5163 5.175C30.5263 5.175 30.5363 5.17 30.5463 5.16C31.2263 4.42 32.0213 4.05 32.9313 4.05C33.8413 4.05 34.5013 4.31 34.9113 4.83C35.3313 5.34 35.5413 6.195 35.5413 7.395V11.145C35.5413 11.375 35.4563 11.575 35.2863 11.745C35.1163 11.915 34.9163 12 34.6863 12H34.4313C34.2013 12 34.0013 11.915 33.8313 11.745C33.6713 11.575 33.5913 11.375 33.5913 11.145V7.545C33.5913 6.795 33.4913 6.285 33.2913 6.015C33.1013 5.735 32.7563 5.595 32.2563 5.595C31.8463 5.595 31.4663 5.77 31.1163 6.12C30.7663 6.47 30.5913 6.845 30.5913 7.245V11.145C30.5913 11.375 30.5063 11.575 30.3363 11.745C30.1663 11.915 29.9663 12 29.7363 12H29.4363ZM38.7835 5.955C38.5835 5.955 38.4135 5.885 38.2735 5.745C38.1335 5.595 38.0635 5.42 38.0635 5.22C38.0635 5.02 38.1335 4.85 38.2735 4.71C38.4135 4.57 38.5835 4.5 38.7835 4.5H39.5035C39.5935 4.5 39.6385 4.455 39.6385 4.365V2.505C39.6385 2.275 39.7185 2.075 39.8785 1.905C40.0485 1.735 40.2485 1.65 40.4785 1.65H40.7785C41.0085 1.65 41.2085 1.735 41.3785 1.905C41.5485 2.075 41.6335 2.275 41.6335 2.505V4.365C41.6335 4.455 41.6785 4.5 41.7685 4.5H43.4785C43.6785 4.5 43.8485 4.57 43.9885 4.71C44.1385 4.85 44.2135 5.02 44.2135 5.22C44.2135 5.42 44.1385 5.595 43.9885 5.745C43.8485 5.885 43.6785 5.955 43.4785 5.955H41.7685C41.6785 5.955 41.6335 5.995 41.6335 6.075V9.105C41.6335 9.755 41.7035 10.175 41.8435 10.365C41.9835 10.555 42.2735 10.65 42.7135 10.65C42.9535 10.65 43.1335 10.64 43.2535 10.62C43.4535 10.6 43.6285 10.645 43.7785 10.755C43.9285 10.865 44.0035 11.015 44.0035 11.205C44.0035 11.425 43.9285 11.625 43.7785 11.805C43.6385 11.975 43.4635 12.07 43.2535 12.09C42.8135 12.13 42.4835 12.15 42.2635 12.15C41.2935 12.15 40.6135 11.945 40.2235 11.535C39.8335 11.115 39.6385 10.37 39.6385 9.3V6.075C39.6385 5.995 39.5935 5.955 39.5035 5.955H38.7835ZM48.7951 12C48.5651 12 48.3651 11.915 48.1951 11.745C48.0251 11.575 47.9401 11.375 47.9401 11.145V5.055C47.9401 4.825 48.0251 4.625 48.1951 4.455C48.3651 4.285 48.5651 4.2 48.7951 4.2H49.1851C49.4151 4.2 49.6151 4.285 49.7851 4.455C49.9551 4.625 50.0401 4.825 50.0401 5.055V11.145C50.0401 11.375 49.9551 11.575 49.7851 11.745C49.6151 11.915 49.4151 12 49.1851 12H48.7951ZM48.7951 2.55C48.5651 2.55 48.3651 2.465 48.1951 2.295C48.0251 2.125 47.9401 1.925 47.9401 1.695V1.605C47.9401 1.375 48.0251 1.175 48.1951 1.005C48.3651 0.834999 48.5651 0.749999 48.7951 0.749999H49.1851C49.4151 0.749999 49.6151 0.834999 49.7851 1.005C49.9551 1.175 50.0401 1.375 50.0401 1.605V1.695C50.0401 1.925 49.9551 2.125 49.7851 2.295C49.6151 2.465 49.4151 2.55 49.1851 2.55H48.7951ZM54.5984 12C54.3684 12 54.1684 11.915 53.9984 11.745C53.8384 11.575 53.7584 11.375 53.7584 11.145V5.055C53.7584 4.825 53.8384 4.625 53.9984 4.455C54.1684 4.285 54.3684 4.2 54.5984 4.2H54.8084C55.0384 4.2 55.2334 4.28 55.3934 4.44C55.5634 4.6 55.6534 4.795 55.6634 5.025V5.13C55.6634 5.14 55.6684 5.145 55.6784 5.145C55.6984 5.145 55.7084 5.14 55.7084 5.13C56.2984 4.41 56.9634 4.05 57.7034 4.05C58.1534 4.05 58.5134 4.135 58.7834 4.305C59.0634 4.475 59.3084 4.775 59.5184 5.205C59.5184 5.215 59.5284 5.22 59.5484 5.22C59.5584 5.22 59.5684 5.215 59.5784 5.205C60.2084 4.435 60.9184 4.05 61.7084 4.05C62.5384 4.05 63.1334 4.275 63.4934 4.725C63.8634 5.175 64.0484 5.95 64.0484 7.05V11.145C64.0484 11.375 63.9634 11.575 63.7934 11.745C63.6334 11.915 63.4384 12 63.2084 12H62.9534C62.7234 12 62.5234 11.915 62.3534 11.745C62.1834 11.575 62.0984 11.375 62.0984 11.145V7.35C62.0984 6.62 62.0284 6.14 61.8884 5.91C61.7484 5.68 61.4784 5.565 61.0784 5.565C60.8184 5.565 60.5584 5.685 60.2984 5.925C60.0384 6.165 59.9084 6.405 59.9084 6.645V11.145C59.9084 11.375 59.8234 11.575 59.6534 11.745C59.4834 11.915 59.2834 12 59.0534 12H58.7984C58.5684 12 58.3684 11.915 58.1984 11.745C58.0384 11.575 57.9584 11.375 57.9584 11.145V7.35C57.9584 6.63 57.8834 6.155 57.7334 5.925C57.5934 5.685 57.3234 5.565 56.9234 5.565C56.6634 5.565 56.4034 5.685 56.1434 5.925C55.8834 6.165 55.7534 6.405 55.7534 6.645V11.145C55.7534 11.375 55.6684 11.575 55.4984 11.745C55.3284 11.915 55.1284 12 54.8984 12H54.5984ZM68.9655 11.88L66.4755 4.995C66.4155 4.795 66.4405 4.615 66.5505 4.455C66.6605 4.285 66.8205 4.2 67.0305 4.2H67.4805C67.7305 4.2 67.9605 4.28 68.1705 4.44C68.3805 4.59 68.5155 4.785 68.5755 5.025L69.9705 9.93C69.9705 9.94 69.9755 9.945 69.9855 9.945C69.9955 9.945 70.0005 9.94 70.0005 9.93L71.6055 5.01C71.6855 4.77 71.8305 4.575 72.0405 4.425C72.2505 4.275 72.4805 4.2 72.7305 4.2H73.0905C73.3005 4.2 73.4605 4.285 73.5705 4.455C73.6905 4.625 73.7105 4.805 73.6305 4.995L69.9705 14.505C69.8805 14.745 69.7305 14.935 69.5205 15.075C69.3105 15.225 69.0755 15.3 68.8155 15.3H68.4555C68.2555 15.3 68.0955 15.215 67.9755 15.045C67.8655 14.885 67.8505 14.71 67.9305 14.52L68.9655 12.12C68.9855 12.08 68.9955 12.04 68.9955 12C68.9955 11.96 68.9855 11.92 68.9655 11.88ZM76.2099 12C75.9799 12 75.7799 11.915 75.6099 11.745C75.4399 11.575 75.3549 11.375 75.3549 11.145V10.305C75.3549 10.075 75.4399 9.875 75.6099 9.705C75.7799 9.535 75.9799 9.45 76.2099 9.45H76.8999C77.1299 9.45 77.3299 9.535 77.4999 9.705C77.6699 9.875 77.7549 10.075 77.7549 10.305V11.145C77.7549 11.375 77.6699 11.575 77.4999 11.745C77.3299 11.915 77.1299 12 76.8999 12H76.2099Z" fill="white"/>
</svg>
