<svg width="139" height="23" viewBox="0 0 139 23" fill="none" xmlns="http://www.w3.org/2000/svg">
<path d="M0 22.2731V16.6657L16.2057 11.1537V11.0905L0 5.48315V0.222656L24.7268 9.42047V13.3578L0 22.2731Z" fill="#F27900"/>
<mask id="mask0_1560_3319" style="mask-type:luminance" maskUnits="userSpaceOnUse" x="27" y="0" width="18" height="23">
<path d="M27.25 0.0957031H44.0491V4.63142H32.6981V8.78927H43.4199V13.325H32.6981V17.8607H44.6783V22.3964H27.25V0.0957031Z" fill="white"/>
</mask>
<g mask="url(#mask0_1560_3319)">
<path d="M94.7777 0.0957031H25.9297V53.6863H94.7777V0.0957031Z" fill="#F27900"/>
<g style="mix-blend-mode:hard-light">
<path d="M27.2941 0.0957031C40.8219 0.0957031 41.3673 21.0156 65.8721 18.71C90.3768 16.4044 96.1133 31.8149 94.5487 41.9763V0.0957031C94.5487 0.0957031 13.7663 0.0957031 27.2927 0.0957031H27.2941Z" fill="url(#paint0_linear_1560_3319)"/>
<path d="M94.7764 50.409C94.7764 50.409 78.8952 44.5415 75.7673 30.1851C72.6394 15.8286 53.3473 0.695335 43.9609 0.695335L94.5373 0.0957031L94.7764 50.409Z" fill="url(#paint1_linear_1560_3319)"/>
</g>
</g>
<mask id="mask1_1560_3319" style="mask-type:luminance" maskUnits="userSpaceOnUse" x="49" y="0" width="24" height="23">
<path d="M49.1172 0.0957031H56.5215L67.0345 15.5935H67.1045V0.0957031H72.5527V22.3964H65.4272L54.6354 6.52079H54.5653V22.3964H49.1172V0.0957031Z" fill="white"/>
</mask>
<g mask="url(#mask1_1560_3319)">
<path d="M94.8346 0.128906H35.4141V53.7195H94.8346V0.128906Z" fill="#F27900"/>
<g style="mix-blend-mode:hard-light">
<path d="M94.8545 50.4435C94.8545 50.4435 59.1263 44.2378 65.143 26.9253C70.0842 12.71 53.4241 0.728537 44.0391 0.728537L94.6154 0.128906L94.8545 50.4422V50.4435Z" fill="url(#paint2_linear_1560_3319)"/>
<g style="mix-blend-mode:color-burn">
<path d="M27.3722 0.128906C40.9001 0.128906 41.4454 21.0488 65.9502 18.7432C90.455 16.4376 96.1914 31.8481 94.6268 42.0095V0.128906C94.6268 0.128906 13.8444 0.128906 27.3708 0.128906H27.3722Z" fill="url(#paint3_linear_1560_3319)"/>
</g>
</g>
</g>
<mask id="mask2_1560_3319" style="mask-type:luminance" maskUnits="userSpaceOnUse" x="75" y="0" width="20" height="23">
<path d="M82.2038 4.44311H75.1484V0.0957031H94.7073V4.44311H87.6519V22.3977H82.2038V4.44311Z" fill="white"/>
</mask>
<g mask="url(#mask2_1560_3319)">
<path d="M94.7096 0.0957031H35.2891V53.6863H94.7096V0.0957031Z" fill="#F27900"/>
<g style="mix-blend-mode:hard-light">
<path d="M34.4922 0.695325C34.4922 0.695325 41.2698 21.0156 65.776 18.71C90.2821 16.4044 96.0172 31.8149 94.4526 41.9763V0.0957031L34.4922 0.695325Z" fill="url(#paint4_linear_1560_3319)"/>
<g style="mix-blend-mode:soft-light">
<path d="M94.6904 50.409C94.6904 50.409 78.8092 44.5415 75.6813 30.1851C72.5535 15.8286 53.2614 0.695335 43.875 0.695335L94.4514 0.0957031L94.6904 50.409Z" fill="url(#paint5_linear_1560_3319)"/>
</g>
</g>
</g>
<mask id="mask3_1560_3319" style="mask-type:luminance" maskUnits="userSpaceOnUse" x="96" y="0" width="19" height="23">
<path d="M96.7358 0H113.642V4.56422H102.218V8.74808H113.009V13.3123H102.218V17.8765H114.274V22.4407H96.7344V0H96.7358Z" fill="white"/>
</mask>
<g mask="url(#mask3_1560_3319)">
<path d="M151.249 -14.1484H93.625V40.4567H151.249V-14.1484Z" fill="#F27900"/>
<g style="mix-blend-mode:hard-light">
<g style="mix-blend-mode:hard-light">
<path d="M66.115 12.4247C78.2748 7.08008 88.9277 25.6697 109.836 13.9151C130.745 2.16042 143.387 13.7466 146.917 23.4992L126.573 -14.1484C126.573 -14.1484 53.9552 17.7693 66.115 12.4247Z" fill="url(#paint6_linear_1560_3319)"/>
</g>
<path d="M151.234 30.9855C151.234 30.9855 134.108 31.9853 124.322 20.3162C114.536 8.6471 89.8433 2.66574 81.4062 6.37374L126.579 -14.1484L151.234 30.9855Z" fill="url(#paint7_linear_1560_3319)"/>
</g>
</g>
<mask id="mask4_1560_3319" style="mask-type:luminance" maskUnits="userSpaceOnUse" x="118" y="0" width="21" height="23">
<path d="M118.039 0H127.67C128.935 0 130.136 0.111504 131.273 0.333272C132.409 0.555041 133.405 0.92548 134.261 1.44335C135.116 1.96123 135.796 2.65874 136.3 3.5359C136.804 4.41307 137.055 5.50704 137.055 6.81659C137.055 8.40118 136.598 9.74914 135.684 10.858C134.771 11.9681 133.434 12.6705 131.677 12.9666L138.005 22.4444H131.431L126.229 13.4734H123.523V22.4444H118.039V0ZM123.523 9.28825H126.757C127.248 9.28825 127.77 9.27215 128.321 9.24117C128.872 9.20896 129.369 9.1148 129.815 8.95622C130.26 8.79764 130.628 8.54985 130.922 8.21162C131.214 7.8734 131.361 7.39889 131.361 6.78562C131.361 6.21447 131.232 5.76102 130.975 5.42279C130.717 5.08457 130.389 4.82563 129.992 4.64599C129.593 4.46634 129.136 4.34493 128.621 4.28174C128.106 4.21855 127.601 4.18634 127.11 4.18634H123.524V9.28949L123.523 9.28825Z" fill="white"/>
</mask>
<g mask="url(#mask4_1560_3319)">
<path d="M151.288 -14.1484H93.6641V40.4567H151.288V-14.1484Z" fill="#F27900"/>
<g style="mix-blend-mode:hard-light">
<path d="M66.1541 12.4247C78.3139 7.08008 88.9667 25.6697 109.875 13.9151C130.784 2.16042 143.426 13.7466 146.956 23.4992L126.612 -14.1484C126.612 -14.1484 53.9943 17.7693 66.1541 12.4247Z" fill="url(#paint8_linear_1560_3319)"/>
<path d="M151.273 30.9855C151.273 30.9855 134.147 31.9853 124.361 20.3162C114.575 8.6471 89.8824 2.66574 81.4453 6.37374L126.618 -14.1484L151.273 30.9855Z" fill="url(#paint9_linear_1560_3319)"/>
</g>
</g>
<defs>
<linearGradient id="paint0_linear_1560_3319" x1="40.3425" y1="-12.2771" x2="109.089" y2="41.7825" gradientUnits="userSpaceOnUse">
<stop stop-color="#FF0000"/>
<stop offset="1" stop-color="#362D51" stop-opacity="0.4"/>
</linearGradient>
<linearGradient id="paint1_linear_1560_3319" x1="86.1839" y1="-17.9527" x2="62.0267" y2="58.8905" gradientUnits="userSpaceOnUse">
<stop stop-color="#FF0000"/>
<stop offset="1" stop-color="#362D51" stop-opacity="0.4"/>
</linearGradient>
<linearGradient id="paint2_linear_1560_3319" x1="86.3239" y1="-18.0806" x2="61.8815" y2="59.6705" gradientUnits="userSpaceOnUse">
<stop stop-color="#E20000"/>
<stop offset="1" stop-color="#362D51" stop-opacity="0.4"/>
</linearGradient>
<linearGradient id="paint3_linear_1560_3319" x1="68.6371" y1="-1.8273" x2="55.7311" y2="41.4171" gradientUnits="userSpaceOnUse">
<stop stop-color="#8F00FF"/>
<stop offset="1" stop-color="#362D51" stop-opacity="0.4"/>
</linearGradient>
<linearGradient id="paint4_linear_1560_3319" x1="45.8991" y1="-8.21104" x2="108.363" y2="40.9103" gradientUnits="userSpaceOnUse">
<stop stop-color="#0021FF"/>
<stop offset="1" stop-color="#362D51" stop-opacity="0.4"/>
</linearGradient>
<linearGradient id="paint5_linear_1560_3319" x1="86.098" y1="-17.9527" x2="61.9407" y2="58.8905" gradientUnits="userSpaceOnUse">
<stop stop-color="#FF0000"/>
<stop offset="1" stop-color="#362D51" stop-opacity="0.4"/>
</linearGradient>
<linearGradient id="paint6_linear_1560_3319" x1="71.8364" y1="-3.85064" x2="160.838" y2="12.4239" gradientUnits="userSpaceOnUse">
<stop stop-color="#FF0000"/>
<stop offset="1" stop-color="#362D51" stop-opacity="0.4"/>
</linearGradient>
<linearGradient id="paint7_linear_1560_3319" x1="110.304" y1="-27.0675" x2="118.794" y2="52.3144" gradientUnits="userSpaceOnUse">
<stop stop-color="#8000FF"/>
<stop offset="1" stop-color="#362D51" stop-opacity="0.4"/>
</linearGradient>
<linearGradient id="paint8_linear_1560_3319" x1="71.8755" y1="-3.85064" x2="160.877" y2="12.4239" gradientUnits="userSpaceOnUse">
<stop stop-color="#FF0000"/>
<stop offset="1" stop-color="#362D51" stop-opacity="0.4"/>
</linearGradient>
<linearGradient id="paint9_linear_1560_3319" x1="110.343" y1="-27.0675" x2="118.833" y2="52.3144" gradientUnits="userSpaceOnUse">
<stop stop-color="#8000FF"/>
<stop offset="1" stop-color="#362D51" stop-opacity="0.4"/>
</linearGradient>
</defs>
</svg>
