<svg width="62" height="60" viewBox="0 0 62 60" fill="none" xmlns="http://www.w3.org/2000/svg">
<path d="M0 18V21.0491L4.91727 23.0617L5.71872 23.3925V23.4256L4.65357 23.8556L0 25.7248V29L3.81075 27.3734L10 24.7378V22.4L5.9514 20.619L0 18Z" fill="black"/>
<path d="M14.8122 24.7145H20.3514V22.0691H14.8122V19.6454H20.6757V17H12V30H21V27.3546H14.8122V24.7145Z" fill="black"/>
<path d="M33.2081 17V26.0345H33.1765L27.7928 17H24V30H26.7919V20.7437H26.8288L32.3494 30H36V17H33.2081Z" fill="black"/>
<path d="M0 32V34.5318H3.60863V45H6.39137V43.2255V34.5318H10V32H3.5455H0Z" fill="black"/>
<path d="M14.8158 39.7091H20.3465V37.0691H14.8158V34.6454H20.6759V32H12V45H21V42.3546H14.8158V39.7091Z" fill="black"/>
<path d="M32.8428 38.2917C33.2994 37.6479 33.5278 36.8689 33.5278 35.9492C33.5278 35.1918 33.4032 34.5589 33.1489 34.0504C32.8947 33.5418 32.5573 33.1361 32.1266 32.8385C31.6959 32.541 31.1977 32.3246 30.6321 32.1948C30.0612 32.0649 29.4593 32 28.8262 32H24V45H26.7452V39.8065H28.0996L30.7047 45H34L30.8293 39.5089C31.7115 39.3358 32.3809 38.9301 32.8376 38.2863L32.8428 38.2917ZM30.4556 36.7607C30.3103 36.9555 30.1235 37.1015 29.9004 37.1935C29.6772 37.2855 29.4281 37.3396 29.1531 37.3612C28.878 37.3774 28.6134 37.3883 28.3695 37.3883H26.7504V34.4345H28.5459C28.7898 34.4345 29.0441 34.4507 29.3036 34.4886C29.5631 34.5264 29.7914 34.5968 29.9886 34.6995C30.1858 34.8023 30.3518 34.9538 30.4816 35.1486C30.6113 35.3433 30.6736 35.6084 30.6736 35.9384C30.6736 36.2955 30.6009 36.5714 30.4556 36.7661V36.7607Z" fill="black"/>
<path d="M6.98081 14.9954L6.83167 15.2445L7.10021 15.355L8.30381 15.8501L8.50146 15.9314L8.61252 15.7488C13.4226 7.83963 22.1135 2.55293 32.0416 2.55293C47.1793 2.55293 59.4485 14.8381 59.4485 29.9967C59.4485 45.1554 47.1793 57.4406 32.0416 57.4406C23.3641 57.4406 15.6342 53.3998 10.6113 47.0918L10.5363 46.9976H10.4158H8.78277H8.286L8.58199 47.3965C13.9097 54.5775 22.4404 59.2435 32.0416 59.2435C48.1457 59.2435 61.2497 46.1215 61.2497 29.9967C61.2497 13.872 48.1457 0.75 32.0416 0.75C21.4101 0.75 12.0856 6.46734 6.98081 14.9954Z" fill="#F8AA00" stroke="#F8AA00" stroke-width="0.5"/>
</svg>
